<svg xmlns="http://www.w3.org/2000/svg" xmlns:xlink="http://www.w3.org/1999/xlink" width="1080" height="1350" viewBox="0 0 1080 1350">
  <defs>
    <linearGradient id="bg" x1="0" y1="0" x2="1" y2="1"><stop offset="0" stop-color="#07111F"/><stop offset="1" stop-color="#10283D"/></linearGradient>
    <pattern id="grid" width="54" height="54" patternUnits="userSpaceOnUse"><path d="M54 0H0V54" fill="none" stroke="#24405D" stroke-opacity=".35"/></pattern>
  </defs>
  <image xlink:href="../visuals/warehouse-brake-parts.png" width="1080" height="1350" preserveAspectRatio="xMidYMid slice"/>
  <rect width="1080" height="1350" fill="url(#bg)" opacity=".72"/><rect width="1080" height="1350" fill="url(#grid)"/>
  <g font-family="DejaVu Sans, Arial, sans-serif">
    <text x="76" y="100" fill="#F4F7FB" font-size="24" font-weight="700" letter-spacing="2">AID / PARTS INTELLIGENCE</text>
    <rect x="76" y="135" width="282" height="42" rx="21" fill="#0D1B2E" stroke="#FFB547"/><text x="98" y="163" fill="#FFB547" font-size="16" font-weight="700" letter-spacing="3">NABAVA AUTODIJELOVA</text>
    <text x="76" y="330" fill="#F4F7FB" font-size="82" font-weight="700"><tspan x="76">Prodaja = 0</tspan><tspan x="76" dy="104" fill="#20D3EE">Potražnja = ?</tspan></text>
    <text x="76" y="548" fill="#9CB0C8" font-size="25">Nedostupan dio ne ostavlja prodajni trag.</text>
    <g transform="translate(76 640)">
      <rect width="928" height="260" rx="28" fill="#0D1B2E" stroke="#24405D"/>
      <circle cx="92" cy="90" r="42" fill="#10283D" stroke="#20D3EE" stroke-width="3"/><text x="92" y="101" text-anchor="middle" fill="#20D3EE" font-size="28" font-weight="700">1</text>
      <text x="164" y="82" fill="#F4F7FB" font-size="27" font-weight="700">Dio nije bio na polici</text><text x="164" y="121" fill="#9CB0C8" font-size="20">kupac odlazi, prodaja ostaje nula</text>
      <path d="M92 146v45h640" fill="none" stroke="#24405D" stroke-width="3"/>
      <circle cx="92" cy="202" r="42" fill="#10283D" stroke="#FFB547" stroke-width="3"/><text x="92" y="213" text-anchor="middle" fill="#FFB547" font-size="28" font-weight="700">2</text>
      <text x="164" y="194" fill="#F4F7FB" font-size="27" font-weight="700">Reorder ponavlja istu odluku</text><text x="164" y="233" fill="#9CB0C8" font-size="20">jer vidi samo povijest prodaje</text>
    </g>
    <rect x="76" y="968" width="928" height="138" rx="26" fill="#20D3EE"/>
    <text x="116" y="1025" fill="#07111F" font-size="24" font-weight="700">Pravi signal povezuje vozni park, fitment,</text><text x="116" y="1066" fill="#07111F" font-size="24" font-weight="700">OE/AM reference i raspoloživu zalihu.</text>
    <text x="76" y="1216" fill="#F4F7FB" font-size="25" font-weight="700">Pregledajte jednu grupu i jednu regiju →</text>
    <text x="76" y="1262" fill="#9CB0C8" font-size="20">autoinsightdata.com</text>
  </g>
</svg>
