<svg xmlns="http://www.w3.org/2000/svg" xmlns:xlink="http://www.w3.org/1999/xlink" width="1080" height="1350" viewBox="0 0 1080 1350">
  <defs><linearGradient id="bg" x1="0" y1="1" x2="1" y2="0"><stop offset="0" stop-color="#07111F"/><stop offset="1" stop-color="#10283D"/></linearGradient><pattern id="dots" width="38" height="38" patternUnits="userSpaceOnUse"><circle cx="2" cy="2" r="1.4" fill="#24405D"/></pattern></defs>
  <image xlink:href="../visuals/category-parts-flatlay.png" width="1080" height="1350" preserveAspectRatio="xMidYMid slice"/>
  <rect width="1080" height="1350" fill="url(#bg)" opacity=".68"/><rect width="1080" height="1350" fill="url(#dots)"/>
  <g font-family="DejaVu Sans, Arial, sans-serif">
    <text x="76" y="100" fill="#F4F7FB" font-size="24" font-weight="700" letter-spacing="2">AID / PARTS INTELLIGENCE</text>
    <text x="76" y="236" fill="#FFB547" font-size="20" font-weight="700" letter-spacing="4">OPERATIVNI SIGNAL</text>
    <text x="76" y="340" fill="#F4F7FB" font-size="76" font-weight="700"><tspan x="76">Pet odluka.</tspan><tspan x="76" dy="92" fill="#20D3EE">Svaki SKU.</tspan></text>
    <g transform="translate(76 540)">
      <rect width="928" height="94" rx="22" fill="#20D3EE"/><text x="34" y="59" fill="#07111F" font-size="29" font-weight="700">NABAVI</text><text x="230" y="58" fill="#07111F" font-size="20">potražnja raste · pokrivenost preniska</text>
      <g transform="translate(0 116)"><rect width="928" height="94" rx="22" fill="#0D1B2E" stroke="#24405D"/><text x="34" y="59" fill="#F4F7FB" font-size="29" font-weight="700">ZADRŽI</text><text x="230" y="58" fill="#9CB0C8" font-size="20">stabilna aplikacija · zdrava rotacija</text></g>
      <g transform="translate(0 232)"><rect width="928" height="94" rx="22" fill="#0D1B2E" stroke="#24405D"/><text x="34" y="59" fill="#F4F7FB" font-size="29" font-weight="700">PREBACI</text><text x="230" y="58" fill="#9CB0C8" font-size="20">zaliha je u pogrešnoj poslovnici</text></g>
      <g transform="translate(0 348)"><rect width="928" height="94" rx="22" fill="#0D1B2E" stroke="#24405D"/><text x="34" y="59" fill="#F4F7FB" font-size="29" font-weight="700">CENTRALIZIRAJ</text><text x="342" y="58" fill="#9CB0C8" font-size="20">skup, spor ili neredovan dio</text></g>
      <g transform="translate(0 464)"><rect width="928" height="94" rx="22" fill="#FFB547"/><text x="34" y="59" fill="#07111F" font-size="29" font-weight="700">ZAUSTAVI</text><text x="230" y="58" fill="#07111F" font-size="20">potražnja slabi · kapital se ne vraća</text></g>
    </g>
    <text x="76" y="1228" fill="#F4F7FB" font-size="25" font-weight="700">Ne još jedan izvještaj. Radna lista za nabavu.</text>
    <text x="76" y="1272" fill="#9CB0C8" font-size="20">autoinsightdata.com</text>
  </g>
</svg>
