<svg xmlns="http://www.w3.org/2000/svg" width="1080" height="1920" viewBox="0 0 1080 1920"><defs><pattern id="grid" width="54" height="54" patternUnits="userSpaceOnUse"><path d="M54 0H0V54" fill="none" stroke="#283C58" stroke-opacity=".28"/></pattern></defs><rect width="1080" height="1920" fill="#0D1B2A"/><rect width="1080" height="1920" fill="url(#grid)"/><rect width="668" height="8" fill="#F5A623"/><rect x="668" width="412" height="8" fill="#3B9DD6"/><g font-family="DejaVu Sans, Arial, sans-serif"><text x="90" y="270" fill="#E8EDF4" font-size="23" font-weight="800" letter-spacing="2.5">AID / KAKO RADI</text><text x="90" y="420" fill="#E8EDF4" font-size="70" font-weight="900">Četiri koraka.</text><text x="90" y="505" fill="#F5A623" font-size="70" font-weight="900">Jedan potez.</text><path d="M180 560V1265" stroke="#283C58" stroke-width="10"/><circle cx="180" cy="560" r="62" fill="#13243A" stroke="#3B9DD6" stroke-width="6"/><text x="180" y="573" text-anchor="middle" fill="#E8EDF4" font-size="36" font-weight="900">1</text><text x="290" y="573" fill="#E8EDF4" font-size="36" font-weight="900">SPOJI</text><circle cx="180" cy="795" r="62" fill="#13243A" stroke="#3B9DD6" stroke-width="6"/><text x="180" y="808" text-anchor="middle" fill="#E8EDF4" font-size="36" font-weight="900">2</text><text x="290" y="808" fill="#E8EDF4" font-size="36" font-weight="900">STANDARDIZIRAJ</text><circle cx="180" cy="1030" r="62" fill="#13243A" stroke="#3B9DD6" stroke-width="6"/><text x="180" y="1043" text-anchor="middle" fill="#E8EDF4" font-size="36" font-weight="900">3</text><text x="290" y="1043" fill="#E8EDF4" font-size="36" font-weight="900">SIGNAL</text><circle cx="180" cy="1265" r="62" fill="#13243A" stroke="#F5A623" stroke-width="6"/><text x="180" y="1278" text-anchor="middle" fill="#E8EDF4" font-size="36" font-weight="900">4</text><text x="290" y="1278" fill="#E8EDF4" font-size="36" font-weight="900">ODLUKA</text><text x="540" y="1500" text-anchor="middle" fill="#3B9DD6" font-size="25" font-weight="800">GDJE PROCES ZAPINJE? PIŠITE NAM ↓</text><text x="90" y="1648" fill="#94A6BE" font-size="19">autoinsightdata.com</text><text x="990" y="1648" text-anchor="end" fill="#F5A623" font-size="19" font-weight="800">AID-2608-S02</text></g></svg>