<svg xmlns="http://www.w3.org/2000/svg" width="1080" height="1920" viewBox="0 0 1080 1920"><defs><pattern id="grid" width="54" height="54" patternUnits="userSpaceOnUse"><path d="M54 0H0V54" fill="none" stroke="#283C58" stroke-opacity=".28"/></pattern></defs><rect width="1080" height="1920" fill="#0D1B2A"/><rect width="1080" height="1920" fill="url(#grid)"/><rect width="668" height="8" fill="#F5A623"/><rect x="668" width="412" height="8" fill="#3B9DD6"/><g font-family="DejaVu Sans, Arial, sans-serif"><text x="90" y="270" fill="#E8EDF4" font-size="23" font-weight="800" letter-spacing="2.5">AID / ODLUKA PO ARTIKLU</text><text x="90" y="420" fill="#E8EDF4" font-size="68" font-weight="900">Što signal</text><text x="90" y="505" fill="#F5A623" font-size="68" font-weight="900">mora vratiti?</text><rect x="90" y="600" width="820" height="112" rx="22" fill="#13243A" stroke="#3B9DD6"/><text x="130" y="670" fill="#E8EDF4" font-size="30" font-weight="900">NABAVI</text><rect x="160" y="750" width="765" height="112" rx="22" fill="#13243A" stroke="#3B9DD6"/><text x="200" y="820" fill="#E8EDF4" font-size="30" font-weight="900">ZADRŽI</text><rect x="90" y="900" width="710" height="112" rx="22" fill="#13243A" stroke="#3B9DD6"/><text x="130" y="970" fill="#E8EDF4" font-size="30" font-weight="900">PREBACI</text><rect x="160" y="1050" width="655" height="112" rx="22" fill="#13243A" stroke="#3B9DD6"/><text x="200" y="1120" fill="#E8EDF4" font-size="30" font-weight="900">CENTRALIZIRAJ</text><rect x="90" y="1200" width="600" height="112" rx="22" fill="#F5A623" stroke="#F5A623"/><text x="130" y="1270" fill="#0D1B2A" font-size="30" font-weight="900">ZAUSTAVI</text><text x="90" y="1648" fill="#94A6BE" font-size="19">autoinsightdata.com</text><text x="990" y="1648" text-anchor="end" fill="#F5A623" font-size="19" font-weight="800">AID-2608-S06</text></g></svg>