<svg xmlns="http://www.w3.org/2000/svg" width="1080" height="1350" viewBox="0 0 1080 1350">
  <defs>
    <linearGradient id="bg" x1="0" y1="0" x2="1" y2="1"><stop stop-color="#0D1B2A"/><stop offset="1" stop-color="#13243A"/></linearGradient>
    <pattern id="grid" width="54" height="54" patternUnits="userSpaceOnUse"><path d="M54 0H0V54" fill="none" stroke="#283C58" stroke-opacity=".28"/></pattern>
    <filter id="shadow"><feDropShadow dx="0" dy="16" stdDeviation="18" flood-color="#000" flood-opacity=".35"/></filter>
  </defs>
<image href="../../../autodijelovi/visuals/category-parts-flatlay.png" width="1080" height="1350" preserveAspectRatio="xMidYMid slice"/>
  <rect width="1080" height="1350" fill="url(#bg)" opacity=".76"/><rect width="1080" height="1350" fill="url(#grid)"/><text x="930" y="1080" text-anchor="middle" fill="#3B9DD6" opacity=".18" font-size="420" font-weight="900">5</text>
  <rect width="668" height="8" fill="#F5A623"/><rect x="668" width="412" height="8" fill="#3B9DD6"/>
  <g font-family="DejaVu Sans, Arial, sans-serif"><text x="76" y="86" fill="#E8EDF4" font-size="21" font-weight="800" letter-spacing="2.4">AID / PARTS INTELLIGENCE</text><text x="76" y="245" fill="#E8EDF4" font-size="78" font-weight="900">Pet odluka.</text><text x="76" y="330" fill="#F5A623" font-size="52" font-weight="800">Ne pet novih dashboarda.</text><rect x="76" y="420" width="610" height="96" rx="18" fill="#13243A" fill-opacity=".94" stroke="#F5A623" stroke-width="2"/><text x="104" y="462" fill="#F5A623" font-size="25" font-weight="900">NABAVI</text><text x="104" y="493" fill="#E8EDF4" font-size="18">pokriće je prenisko</text><rect x="146" y="548" width="720" height="96" rx="18" fill="#13243A" fill-opacity=".94" stroke="#3B9DD6" stroke-width="2"/><text x="174" y="590" fill="#3B9DD6" font-size="25" font-weight="900">ZADRŽI</text><text x="174" y="621" fill="#E8EDF4" font-size="18">aplikacija i rotacija su zdrave</text><rect x="76" y="676" width="830" height="96" rx="18" fill="#13243A" fill-opacity=".94" stroke="#3B9DD6" stroke-width="2"/><text x="104" y="718" fill="#3B9DD6" font-size="25" font-weight="900">PREBACI</text><text x="104" y="749" fill="#E8EDF4" font-size="18">zaliha je na pogrešnoj lokaciji</text><rect x="146" y="804" width="900" height="96" rx="18" fill="#13243A" fill-opacity=".94" stroke="#3B9DD6" stroke-width="2"/><text x="174" y="846" fill="#3B9DD6" font-size="25" font-weight="900">CENTRALIZIRAJ</text><text x="174" y="877" fill="#E8EDF4" font-size="18">spor ili skup dio ne treba svugdje</text><rect x="76" y="932" width="760" height="96" rx="18" fill="#13243A" fill-opacity=".94" stroke="#F5A623" stroke-width="2"/><text x="104" y="974" fill="#F5A623" font-size="25" font-weight="900">ZAUSTAVI</text><text x="104" y="1005" fill="#E8EDF4" font-size="18">ulaz više nema opravdanje</text>
    <line x1="76" y1="1190" x2="1004" y2="1190" stroke="#283C58" stroke-width="2"/>
    <text x="76" y="1235" fill="#E8EDF4" font-size="21" font-weight="700">Koja odluka danas najčešće ostaje na osjećaj?</text>
    <text x="76" y="1286" fill="#94A6BE" font-size="18">autoinsightdata.com</text><text x="1004" y="1286" text-anchor="end" fill="#F5A623" font-size="18" font-weight="800">AID-2608-F04</text>
  </g></svg>