<svg xmlns="http://www.w3.org/2000/svg" width="1080" height="1350" viewBox="0 0 1080 1350">
  <defs>
    <linearGradient id="bg" x1="0" y1="0" x2="1" y2="1"><stop stop-color="#0D1B2A"/><stop offset="1" stop-color="#13243A"/></linearGradient>
    <pattern id="grid" width="54" height="54" patternUnits="userSpaceOnUse"><path d="M54 0H0V54" fill="none" stroke="#283C58" stroke-opacity=".28"/></pattern>
    <filter id="shadow"><feDropShadow dx="0" dy="16" stdDeviation="18" flood-color="#000" flood-opacity=".35"/></filter>
  </defs>

  <rect width="1080" height="1350" fill="url(#bg)" opacity="1"/><rect width="1080" height="1350" fill="url(#grid)"/><circle cx="690" cy="690" r="360" fill="#F5A623" opacity=".035"/>
  <rect width="668" height="8" fill="#F5A623"/><rect x="668" width="412" height="8" fill="#3B9DD6"/>
  <g font-family="DejaVu Sans, Arial, sans-serif"><text x="76" y="86" fill="#E8EDF4" font-size="21" font-weight="800" letter-spacing="2.4">AID / STOCK AGING SIGNAL</text>
    <text x="76" y="250" fill="#E8EDF4" font-size="62" font-weight="900">Koliko dugo kapital</text><text x="76" y="325" fill="#F5A623" font-size="62" font-weight="900">čeka odluku?</text>
    <circle cx="690" cy="690" r="270" fill="#13243A" stroke="#283C58" stroke-width="18"/><path d="M690 690V505M690 690L840 775" stroke="#F5A623" stroke-width="18" stroke-linecap="round"/><circle cx="690" cy="690" r="28" fill="#F5A623"/><path d="M690 390A300 300 0 0 1 990 690" fill="none" stroke="#3B9DD6" stroke-width="22"/>
    <rect x="76" y="470" width="300" height="116" rx="22" fill="#13243A" stroke="#3B9DD6"/><text x="106" y="520" fill="#3B9DD6" font-size="22" font-weight="900">ZADRŽI</text><text x="106" y="556" fill="#E8EDF4" font-size="18">kada signal opravdava</text>
    <rect x="76" y="630" width="300" height="116" rx="22" fill="#13243A" stroke="#F5A623"/><text x="106" y="680" fill="#F5A623" font-size="22" font-weight="900">KORIGIRAJ</text><text x="106" y="716" fill="#E8EDF4" font-size="18">cijenu, kanal ili prioritet</text>
    <rect x="76" y="790" width="360" height="116" rx="22" fill="#13243A" stroke="#3B9DD6"/><text x="106" y="840" fill="#3B9DD6" font-size="22" font-weight="900">PREMJESTI / IZAĐI</text><text x="106" y="876" fill="#E8EDF4" font-size="18">prije skuplje korekcije</text><text x="690" y="1065" text-anchor="middle" fill="#94A6BE" font-size="24">Vrijeme nije samo metrika. Vrijeme je signal.</text>
    <line x1="76" y1="1190" x2="1004" y2="1190" stroke="#283C58" stroke-width="2"/>
    <text x="76" y="1235" fill="#E8EDF4" font-size="21" font-weight="700">Gdje vam odluka najduže čeka?</text>
    <text x="76" y="1286" fill="#94A6BE" font-size="18">autoinsightdata.com</text><text x="1004" y="1286" text-anchor="end" fill="#F5A623" font-size="18" font-weight="800">AID-2608-F06</text>
  </g></svg>